<?xml version="1.0" standalone="yes"?>
<svg xmlns="http://www.w3.org/2000/svg" width="1350" height="1350">
<path style="fill:#17436b; stroke:none;" d="M0 0L0 1350L1350 1350L1350 0L0 0z"/>
<path style="fill:#fefefe; stroke:none;" d="M736 119.424C713.161 122.423 689.93 123.432 667 126.285C632.533 130.573 597.111 139.699 565 152.926C550.566 158.872 536.444 166.962 522.911 174.706C478.594 200.066 436.324 232.119 411.351 278C409.126 282.089 408.1 286.67 406.467 291C401.547 304.047 397.56 316.368 394.501 330C390.184 349.238 389.302 367.522 392.438 387C395.817 407.983 403.689 426.265 413.424 445C426.807 470.755 449.752 492.636 472 510.739C491.674 526.748 512.186 542.901 534.17 555.644C578.682 581.447 626.561 598.748 675 615.505C704.646 625.76 734.033 636.699 764 645.974C811.122 660.56 859.536 672.158 905 691.598C924.374 699.882 943.183 711.172 961.001 722.439C986.742 738.716 1007.41 759.284 1025 784C1029.41 790.202 1034.37 796.281 1037.98 803.001C1049.19 823.827 1055.8 847.747 1059.68 871C1063.83 895.92 1061.12 920.996 1061 946C1060.93 959.784 1055.61 977.19 1061.98 989.996C1065.34 996.755 1075.15 1003.27 1082.91 1000.11C1089.77 997.307 1094.76 988.3 1097.88 982.039C1106.41 964.923 1110.48 945.704 1114.2 927C1119.49 900.378 1119.94 872.995 1118.09 846C1117.38 835.572 1117.45 825.383 1115.71 815C1112.83 797.736 1106.68 779.72 1099.02 764C1088.25 741.892 1072.26 722.16 1055.83 704C999.256 641.47 921.878 607.321 844 579.819C826.343 573.584 808.929 566.326 791 560.862C773.775 555.612 756.157 551.403 739 545.971C715.181 538.43 692.064 528.675 669 519.141C655.015 513.36 641.203 508.125 628 500.573C616.473 493.979 604.898 486.738 595 477.829C572.517 457.595 559.353 430.906 552.127 402C548.83 388.813 546.132 374.667 547.089 361C548.823 336.268 558.46 312.062 571.014 291C603.674 236.206 664.945 209.213 725 197.2C744.499 193.299 764.178 189.058 784 187.17C793.525 186.263 803.434 187 813 187C846.842 187 880.478 190.627 913 200.279C933.551 206.379 953.11 213.591 971 225.746C989.234 238.136 1004.03 253.551 1017.35 271C1027.49 284.288 1035.43 300.304 1041.12 316C1048.13 335.297 1040.07 358.167 1018 360.816C1003.12 362.602 989.299 354.805 975 352.321C944.036 346.941 913.05 355.175 889 375.439C879.597 383.362 871.416 393.355 865.525 404.17C840.72 449.702 861.882 506.744 904 533.564C943.617 558.791 989.361 556.717 1032.99 544.646C1038.96 542.994 1044.88 538.07 1050 534.667C1062.55 526.314 1074.27 517.478 1084.13 506C1100.83 486.567 1109.79 463.917 1114.46 439C1117.72 421.585 1120.74 403.787 1119.96 386C1119.19 368.352 1115.58 351.114 1111.37 334C1107.19 316.944 1102.84 298.171 1093.66 283C1076.36 254.434 1056.93 227.61 1032 205.171C975.58 154.392 898.213 130.017 824 122.83C813.978 121.86 804.05 119.778 794 119.089C782.765 118.32 771.261 119 760 119C752.075 119 743.867 118.392 736 119.424M268.039 349.668C261.164 351.712 254.277 361.813 251.443 368C243.5 385.342 239.275 404.352 235.551 423C230.44 448.59 230.133 475.04 231.91 501C232.549 510.323 231.976 519.711 233.3 529C235.765 546.289 241.437 564 248.336 580C258.779 604.217 275.988 625.38 293.285 645C348.248 707.342 425.342 741.718 502 768.858C525.353 777.126 548.426 785.867 572 793.495C585.829 797.969 600.151 800.801 614 805.216C632.086 810.982 649.364 818.555 667.001 825.448C688.94 834.023 710.847 842.44 731 854.811C766.101 876.359 788.254 908.299 797.898 948C800.984 960.703 803.537 973.841 802.961 987C801.756 1014.51 790.288 1043.66 774.561 1066C739.572 1115.7 683.985 1140.78 626 1152.45C608.468 1155.98 590.841 1160.13 573 1161.83C526.434 1166.27 476.726 1162.48 432 1148.51C383.373 1133.31 341.93 1102.23 318.753 1056C314.71 1047.93 310.285 1039.77 307.927 1031C302.417 1010.51 312.671 988.604 336 989.054C349.116 989.307 361.303 995.146 374 997.54C395.959 1001.68 418.769 998.349 439 989.1C475.249 972.527 499.074 931.675 494.826 892C492.697 872.114 483.334 853.159 470.561 838C438.823 800.334 384.423 788.62 338 800.421C328.98 802.713 319.211 803.624 311 808.3C296.671 816.46 281.296 826.758 270.17 839.001C259.669 850.555 250.289 863.488 244.312 878C238.622 891.815 236.285 906.401 233.75 921C219.118 1005.25 256.686 1095.63 323 1149C411.469 1220.2 529.596 1238.73 640 1228.17C690.943 1223.3 741.649 1215.58 789 1194.96C826.613 1178.59 865.874 1156.11 895 1127C909.739 1112.27 925.579 1095.56 935.45 1077C946.768 1055.72 953.907 1032.78 957.427 1009C958.742 1000.12 960.355 991.014 959.961 982C958.703 953.239 948.993 924.3 933.771 900C916.792 872.894 893.126 850.79 868 831.349C841.612 810.932 814.511 793.155 784.911 777.82C748.741 759.082 709.445 746.66 671 733.573C641.619 723.571 612.779 711.885 583 703.042C518.673 683.941 452.141 668.245 395 631.459C377.654 620.292 360.259 608.144 346.09 592.999C331.368 577.266 316.803 557.614 307.792 538C287.995 494.911 285.723 446.541 288.91 400C289.207 395.675 288.752 391.319 289.17 387C290.475 373.512 294.077 357.449 278 351.21C274.904 350.009 271.365 348.68 268.039 349.668z"/>
</svg>
